<svg xmlns="http://www.w3.org/2000/svg" viewBox="0 0 48 48">
  <path d="M23.5 3C15.912037 3 9.8572455 7.3634263 7.1269531 13.244141C4.3971841 19.123727 5.0147018 26.59189 10.388672 32.505859 A 1.50015 1.50015 0 0 0 10.390625 32.509766 A 1.50015 1.50015 0 0 0 10.390625 32.511719C11.410579 33.670823 12 35.078496 12 36.539062L12 43.5 A 1.50015 1.50015 0 1 0 15 43.5L15 36.539062C15 34.27163 14.084657 32.168183 12.642578 30.529297C12.652978 30.540367 12.619765 30.503034 12.609375 30.490234C7.9861966 25.404738 7.5869486 19.375145 9.8476562 14.505859C12.108364 9.6365737 17.051963 6 23.5 6C30.107143 6 33.521849 8.4791665 35.384766 11.21875C36.316224 12.588542 36.841485 14.053902 37.072266 15.316406C37.303046 16.57891 37.191781 17.678581 37.076172 18.025391 A 1.50015 1.50015 0 0 0 37.195312 19.242188L41.507812 26.818359L38.828125 28.158203 A 1.50015 1.50015 0 0 0 38 29.5L38 35.070312C38 36.687877 36.678963 37.927234 35.068359 37.816406C33.783787 37.727886 32.287 37.595876 30.677734 37.404297 A 1.50015 1.50015 0 0 0 29 38.894531L29 43.5 A 1.50015 1.50015 0 1 0 32 43.5L32 40.541016C32.985671 40.638276 34.024569 40.75093 34.861328 40.808594C38.162725 41.035766 41 38.376748 41 35.070312L41 30.427734L43.21875 29.318359 A 1.50015 1.50015 0 0 0 43.21875 29.316406C44.453459 28.697893 44.998147 27.180583 44.4375 25.917969 A 1.50015 1.50015 0 0 0 44.371094 25.783203L40.048828 18.189453C40.235887 17.192316 40.260333 16.084007 40.021484 14.777344C39.721015 13.133645 39.058776 11.286458 37.865234 9.53125C35.478151 6.0208335 30.892857 3 23.5 3 z M 24.980469 12.480469 A 1.50015 1.50015 0 0 0 23.566406 13.558594L19.566406 26.558594 A 1.50015 1.50015 0 1 0 22.433594 27.441406L26.433594 14.441406 A 1.50015 1.50015 0 0 0 24.980469 12.480469 z M 16.054688 14.484375 A 1.50015 1.50015 0 0 0 14.800781 15.099609L11.800781 19.099609 A 1.50015 1.50015 0 0 0 11.800781 20.900391L14.800781 24.900391 A 1.50015 1.50015 0 1 0 17.199219 23.099609L14.875 20L17.199219 16.900391 A 1.50015 1.50015 0 0 0 16.054688 14.484375 z M 30.048828 14.484375 A 1.50015 1.50015 0 0 0 28.800781 16.900391L31.125 20L28.800781 23.099609 A 1.50015 1.50015 0 1 0 31.199219 24.900391L34.199219 20.900391 A 1.50015 1.50015 0 0 0 34.199219 19.099609L31.199219 15.099609 A 1.50015 1.50015 0 0 0 30.048828 14.484375 z" fill="#FFFFFF" />
</svg>