<svg xmlns="http://www.w3.org/2000/svg" viewBox="0 0 24 24">
  <path d="M3 5C1.9069372 5 1 5.9069372 1 7L1 18C1 19.093063 1.9069372 20 3 20L21 20C22.093063 20 23 19.093063 23 18L23 7C23 5.9069372 22.093063 5 21 5L3 5 z M 3 7L21 7L21 18L3 18L3 7 z M 8.3457031 10L7 15L8.0527344 15L8.3105469 14L9.6777344 14L9.9375 15L11 15L9.6464844 10L8.3457031 10 z M 12 10L12 15L13 15L13 13L13.5 13C14.328 13 15 12.328 15 11.5C15 10.672 14.328 10 13.5 10L12 10 z M 16 10L16 15L17 15L17 10L16 10 z M 13 11L13.5 11C13.776 11 14 11.224 14 11.5C14 11.776 13.776 12 13.5 12L13 12L13 11 z M 8.9921875 11.353516L9.4199219 13L8.5683594 13L8.9921875 11.353516 z" fill="#FFFFFF" />
</svg>