<svg xmlns="http://www.w3.org/2000/svg" viewBox="0 0 32 32">
  <path d="M6 3L6 10L8 10L8 5L24 5L24 10L26 10L26 3 Z M 8 12L8 20L10 20C11.644531 20 13 18.644531 13 17L13 15C13 13.355469 11.644531 12 10 12 Z M 16.5 12C15.117188 12 14 13.117188 14 14.5L14 17.5C14 18.882813 15.117188 20 16.5 20C17.882813 20 19 18.882813 19 17.5L19 14.5C19 13.117188 17.882813 12 16.5 12 Z M 22.5 12C21.117188 12 20 13.117188 20 14.5L20 17.5C20 18.882813 21.117188 20 22.5 20C23.882813 20 25 18.882813 25 17.5L25 17L23 17L23 17.5C23 17.714844 22.714844 18 22.5 18C22.285156 18 22 17.714844 22 17.5L22 14.5C22 14.285156 22.285156 14 22.5 14C22.714844 14 23 14.285156 23 14.5L23 15L25 15L25 14.5C25 13.117188 23.882813 12 22.5 12 Z M 10 14C10.554688 14 11 14.445313 11 15L11 17C11 17.554688 10.554688 18 10 18 Z M 16.5 14C16.714844 14 17 14.285156 17 14.5L17 17.5C17 17.714844 16.714844 18 16.5 18C16.285156 18 16 17.714844 16 17.5L16 14.5C16 14.285156 16.285156 14 16.5 14 Z M 6 22L6 29L26 29L26 22L24 22L24 27L8 27L8 22Z" fill="#222222" />
</svg>