<svg xmlns="http://www.w3.org/2000/svg" enable-background="new 0 0 24 24" viewBox="0 0 24 24"><path d="M12,24c-0.128,0-0.256-0.049-0.354-0.146l-11.5-11.5c-0.195-0.195-0.195-0.512,0-0.707l11.5-11.5c0.195-0.195,0.512-0.195,0.707,0l11.5,11.5c0.195,0.195,0.195,0.512,0,0.707l-11.5,11.5C12.256,23.951,12.128,24,12,24z M1.207,12L12,22.793L22.793,12L12,1.207L1.207,12z"/><path d="M5,17c-0.096,0-0.191-0.027-0.277-0.084c-0.229-0.152-0.292-0.463-0.139-0.693l9.189-13.81c0.152-0.229,0.463-0.29,0.693-0.139c0.229,0.152,0.292,0.463,0.139,0.693l-9.189,13.81C5.32,16.922,5.161,17,5,17z"/><path d="M23.5,12.5c-0.064,0-0.13-0.013-0.192-0.039L7.081,5.688C6.826,5.582,6.706,5.289,6.812,5.034c0.106-0.256,0.401-0.375,0.653-0.269l16.227,6.773c0.255,0.105,0.375,0.398,0.269,0.653C23.881,12.385,23.695,12.5,23.5,12.5z"/><path d="M14.626,21.375c-0.025,0-0.05-0.002-0.075-0.006c-0.272-0.04-0.461-0.295-0.42-0.568l2.31-15.44c0.041-0.274,0.295-0.464,0.568-0.42c0.272,0.04,0.461,0.295,0.42,0.568l-2.31,15.44C15.082,21.197,14.869,21.375,14.626,21.375z"/><path d="M19.412,16.589c-0.035,0-0.071-0.004-0.106-0.012L0.395,12.488c-0.271-0.058-0.441-0.324-0.383-0.594c0.058-0.269,0.32-0.444,0.594-0.383l18.911,4.089c0.271,0.058,0.441,0.324,0.383,0.594C19.85,16.429,19.642,16.589,19.412,16.589z"/><path d="M3.525,15.57c-0.188,0-0.367-0.106-0.453-0.288c-0.117-0.25-0.009-0.548,0.241-0.665l15.689-7.355c0.248-0.116,0.547-0.01,0.665,0.241c0.117,0.25,0.009,0.548-0.241,0.665L3.737,15.523C3.669,15.556,3.597,15.57,3.525,15.57z"/><path d="M12.891,23.109c-0.165,0-0.327-0.082-0.422-0.232L3.542,8.804C3.394,8.57,3.463,8.262,3.696,8.114c0.23-0.148,0.541-0.081,0.689,0.154l8.927,14.073c0.148,0.233,0.079,0.542-0.154,0.689C13.075,23.084,12.982,23.109,12.891,23.109z"/></svg>